HIERARCHY
ROOT mixamorig:Hips
{
	OFFSET 0.000000 104.274902 0.000000
	CHANNELS 6 Xposition Yposition Zposition Xrotation Yrotation Zrotation
	JOINT mixamorig:Spine
	{
		OFFSET 0.000000 10.181549 0.131524
		CHANNELS 6 Xposition Yposition Zposition Xrotation Yrotation Zrotation
		JOINT mixamorig:Spine1
		{
			OFFSET 0.000000 9.893990 -1.470706
			CHANNELS 3 Xrotation Yrotation Zrotation
			JOINT mixamorig:Spine2
			{
				OFFSET 0.000000 9.220787 -1.370637
				CHANNELS 3 Xrotation Yrotation Zrotation
				JOINT mixamorig:Neck
				{
					OFFSET 0.000000 16.740372 -2.049022
					CHANNELS 6 Xposition Yposition Zposition Xrotation Yrotation Zrotation
					JOINT mixamorig:Head
					{
						OFFSET 0.000000 9.617859 1.684976
						CHANNELS 6 Xposition Yposition Zposition Xrotation Yrotation Zrotation
						JOINT mixamorig:HeadTop_End
						{
							OFFSET 0.000000 22.037384 7.501072
							CHANNELS 6 Xposition Yposition Zposition Xrotation Yrotation Zrotation
							End Site
							{
								OFFSET 0.000000 23.106567 -2.828246
							}
						}
					}
				}
				JOINT mixamorig:RightShoulder
				{
					OFFSET -4.570000 11.014877 -2.160840
					CHANNELS 6 Xposition Yposition Zposition Xrotation Yrotation Zrotation
					JOINT mixamorig:RightArm
					{
						OFFSET -10.592867 -0.524796 -2.232105
						CHANNELS 3 Xrotation Yrotation Zrotation
						JOINT mixamorig:RightForeArm
						{
							OFFSET -27.841497 0.000000 -0.000002
							CHANNELS 3 Xrotation Yrotation Zrotation
							JOINT mixamorig:RightHand
							{
								OFFSET -28.328812 0.000000 -0.000001
								CHANNELS 3 Xrotation Yrotation Zrotation
								JOINT mixamorig:RightHandThumb1
								{
									OFFSET -2.464798 -1.573990 2.681911
									CHANNELS 6 Xposition Yposition Zposition Xrotation Yrotation Zrotation
									JOINT mixamorig:RightHandThumb2
									{
										OFFSET -3.244781 -1.873383 1.873376
										CHANNELS 3 Xrotation Yrotation Zrotation
										JOINT mixamorig:RightHandThumb3
										{
											OFFSET -2.646263 -1.527817 1.527818
											CHANNELS 6 Xposition Yposition Zposition Xrotation Yrotation Zrotation
											JOINT mixamorig:RightHandThumb4
											{
												OFFSET -1.994591 -1.151581 1.151575
												CHANNELS 6 Xposition Yposition Zposition Xrotation Yrotation Zrotation
												End Site
												{
													OFFSET -1.860176 -1.142715 1.365483
												}
											}
										}
									}
								}
								JOINT mixamorig:RightHandIndex1
								{
									OFFSET -9.108299 -0.517883 2.259803
									CHANNELS 6 Xposition Yposition Zposition Xrotation Yrotation Zrotation
									JOINT mixamorig:RightHandIndex2
									{
										OFFSET -3.699997 0.000000 0.000000
										CHANNELS 3 Xrotation Yrotation Zrotation
										JOINT mixamorig:RightHandIndex3
										{
											OFFSET -2.850006 0.000000 0.000000
											CHANNELS 3 Xrotation Yrotation Zrotation
											JOINT mixamorig:RightHandIndex4
											{
												OFFSET -2.772194 0.000000 0.000000
												CHANNELS 3 Xrotation Yrotation Zrotation
												End Site
												{
													OFFSET -2.772202 0.000000 -0.000484
												}
											}
										}
									}
								}
								JOINT mixamorig:RightHandMiddle1
								{
									OFFSET -9.532501 0.000000 -0.000000
									CHANNELS 6 Xposition Yposition Zposition Xrotation Yrotation Zrotation
									JOINT mixamorig:RightHandMiddle2
									{
										OFFSET -3.699997 0.000000 0.000000
										CHANNELS 3 Xrotation Yrotation Zrotation
										JOINT mixamorig:RightHandMiddle3
										{
											OFFSET -2.949997 0.000000 0.000000
											CHANNELS 3 Xrotation Yrotation Zrotation
											JOINT mixamorig:RightHandMiddle4
											{
												OFFSET -2.946594 0.000000 0.000000
												CHANNELS 3 Xrotation Yrotation Zrotation
												End Site
												{
													OFFSET -2.946602 0.000000 -0.000982
												}
											}
										}
									}
								}
								JOINT mixamorig:RightHandRing1
								{
									OFFSET -9.103600 -0.043106 -1.865100
									CHANNELS 6 Xposition Yposition Zposition Xrotation Yrotation Zrotation
									JOINT mixamorig:RightHandRing2
									{
										OFFSET -3.379303 0.000000 0.000000
										CHANNELS 3 Xrotation Yrotation Zrotation
										JOINT mixamorig:RightHandRing3
										{
											OFFSET -2.889694 0.000000 0.000000
											CHANNELS 3 Xrotation Yrotation Zrotation
											JOINT mixamorig:RightHandRing4
											{
												OFFSET -2.638802 0.000000 0.000000
												CHANNELS 3 Xrotation Yrotation Zrotation
												End Site
												{
													OFFSET -2.638802 0.000000 0.004218
												}
											}
										}
									}
								}
								JOINT mixamorig:RightHandPinky1
								{
									OFFSET -8.076698 -0.486725 -3.806299
									CHANNELS 6 Xposition Yposition Zposition Xrotation Yrotation Zrotation
									JOINT mixamorig:RightHandPinky2
									{
										OFFSET -3.600006 0.000000 0.000000
										CHANNELS 3 Xrotation Yrotation Zrotation
										JOINT mixamorig:RightHandPinky3
										{
											OFFSET -2.099998 0.000000 0.000000
											CHANNELS 3 Xrotation Yrotation Zrotation
											JOINT mixamorig:RightHandPinky4
											{
												OFFSET -2.115791 0.000000 0.000000
												CHANNELS 3 Xrotation Yrotation Zrotation
												End Site
												{
													OFFSET -2.115799 0.000000 0.000174
												}
											}
										}
									}
								}
							}
						}
					}
				}
				JOINT mixamorig:LeftShoulder
				{
					OFFSET 4.570400 11.014679 -2.160816
					CHANNELS 6 Xposition Yposition Zposition Xrotation Yrotation Zrotation
					JOINT mixamorig:LeftArm
					{
						OFFSET 10.592373 -0.524597 -2.232116
						CHANNELS 3 Xrotation Yrotation Zrotation
						JOINT mixamorig:LeftForeArm
						{
							OFFSET 27.841488 0.000000 0.000001
							CHANNELS 3 Xrotation Yrotation Zrotation
							JOINT mixamorig:LeftHand
							{
								OFFSET 28.328808 0.000000 -0.000000
								CHANNELS 3 Xrotation Yrotation Zrotation
								JOINT mixamorig:LeftHandThumb1
								{
									OFFSET 2.466103 -1.576202 2.681698
									CHANNELS 6 Xposition Yposition Zposition Xrotation Yrotation Zrotation
									JOINT mixamorig:LeftHandThumb2
									{
										OFFSET 3.243317 -1.872528 1.872530
										CHANNELS 3 Xrotation Yrotation Zrotation
										JOINT mixamorig:LeftHandThumb3
										{
											OFFSET 2.647881 -1.528763 1.528754
											CHANNELS 6 Xposition Yposition Zposition Xrotation Yrotation Zrotation
											JOINT mixamorig:LeftHandThumb4
											{
												OFFSET 1.998924 -1.154083 1.154080
												CHANNELS 6 Xposition Yposition Zposition Xrotation Yrotation Zrotation
												End Site
												{
													OFFSET 1.884041 -1.149155 1.337651
												}
											}
										}
									}
								}
								JOINT mixamorig:LeftHandIndex1
								{
									OFFSET 9.109299 -0.518005 2.259900
									CHANNELS 6 Xposition Yposition Zposition Xrotation Yrotation Zrotation
									JOINT mixamorig:LeftHandIndex2
									{
										OFFSET 3.699997 0.000000 0.000000
										CHANNELS 3 Xrotation Yrotation Zrotation
										JOINT mixamorig:LeftHandIndex3
										{
											OFFSET 2.850006 0.000000 0.000000
											CHANNELS 3 Xrotation Yrotation Zrotation
											JOINT mixamorig:LeftHandIndex4
											{
												OFFSET 2.774895 0.000000 0.000000
												CHANNELS 3 Xrotation Yrotation Zrotation
												End Site
												{
													OFFSET 2.774902 0.000000 -0.000072
												}
											}
										}
									}
								}
								JOINT mixamorig:LeftHandMiddle1
								{
									OFFSET 9.533401 0.000000 0.000000
									CHANNELS 6 Xposition Yposition Zposition Xrotation Yrotation Zrotation
									JOINT mixamorig:LeftHandMiddle2
									{
										OFFSET 3.699997 0.000000 0.000000
										CHANNELS 3 Xrotation Yrotation Zrotation
										JOINT mixamorig:LeftHandMiddle3
										{
											OFFSET 2.949997 0.000000 0.000000
											CHANNELS 3 Xrotation Yrotation Zrotation
											JOINT mixamorig:LeftHandMiddle4
											{
												OFFSET 2.952896 0.000000 0.000000
												CHANNELS 3 Xrotation Yrotation Zrotation
												End Site
												{
													OFFSET 2.952904 0.000000 0.000165
												}
											}
										}
									}
								}
								JOINT mixamorig:LeftHandRing1
								{
									OFFSET 9.104500 -0.042999 -1.865101
									CHANNELS 6 Xposition Yposition Zposition Xrotation Yrotation Zrotation
									JOINT mixamorig:LeftHandRing2
									{
										OFFSET 3.149994 0.000000 0.000000
										CHANNELS 3 Xrotation Yrotation Zrotation
										JOINT mixamorig:LeftHandRing3
										{
											OFFSET 2.950005 0.000000 0.000000
											CHANNELS 3 Xrotation Yrotation Zrotation
											JOINT mixamorig:LeftHandRing4
											{
												OFFSET 2.644302 0.000000 0.000000
												CHANNELS 3 Xrotation Yrotation Zrotation
												End Site
												{
													OFFSET 2.644302 0.000000 0.000083
												}
											}
										}
									}
								}
								JOINT mixamorig:LeftHandPinky1
								{
									OFFSET 8.077805 -0.486893 -3.806302
									CHANNELS 6 Xposition Yposition Zposition Xrotation Yrotation Zrotation
									JOINT mixamorig:LeftHandPinky2
									{
										OFFSET 3.600006 0.000000 0.000000
										CHANNELS 3 Xrotation Yrotation Zrotation
										JOINT mixamorig:LeftHandPinky3
										{
											OFFSET 2.099998 0.000000 0.000000
											CHANNELS 3 Xrotation Yrotation Zrotation
											JOINT mixamorig:LeftHandPinky4
											{
												OFFSET 2.125496 0.000000 0.000000
												CHANNELS 3 Xrotation Yrotation Zrotation
												End Site
												{
													OFFSET 2.125504 0.000000 -0.001254
												}
											}
										}
									}
								}
							}
						}
					}
				}
			}
		}
	}
	JOINT mixamorig:RightUpLeg
	{
		OFFSET -8.207800 -6.751701 -1.599544
		CHANNELS 6 Xposition Yposition Zposition Xrotation Yrotation Zrotation
		JOINT mixamorig:RightLeg
		{
			OFFSET 0.000004 -44.370152 0.345934
			CHANNELS 3 Xrotation Yrotation Zrotation
			JOINT mixamorig:RightFoot
			{
				OFFSET 0.000004 -44.423664 -3.043535
				CHANNELS 3 Xrotation Yrotation Zrotation
				JOINT mixamorig:RightToeBase
				{
					OFFSET 0.000001 -8.728691 10.710592
					CHANNELS 3 Xrotation Yrotation Zrotation
					JOINT mixamorig:RightToe_End
					{
						OFFSET 0.000000 -0.000665 9.278101
						CHANNELS 3 Xrotation Yrotation Zrotation
						End Site
						{
							OFFSET 0.000000 -0.000665 9.278103
						}
					}
				}
			}
		}
	}
	JOINT mixamorig:LeftUpLeg
	{
		OFFSET 8.207800 -6.751701 -1.599544
		CHANNELS 6 Xposition Yposition Zposition Xrotation Yrotation Zrotation
		JOINT mixamorig:LeftLeg
		{
			OFFSET 0.000004 -44.370037 0.346940
			CHANNELS 3 Xrotation Yrotation Zrotation
			JOINT mixamorig:LeftFoot
			{
				OFFSET 0.000004 -44.423611 -3.044388
				CHANNELS 3 Xrotation Yrotation Zrotation
				JOINT mixamorig:LeftToeBase
				{
					OFFSET 0.000001 -8.728690 10.710592
					CHANNELS 3 Xrotation Yrotation Zrotation
					JOINT mixamorig:LeftToe_End
					{
						OFFSET 0.000000 -0.000680 9.278101
						CHANNELS 3 Xrotation Yrotation Zrotation
						End Site
						{
							OFFSET 0.000000 -0.000680 9.278101
						}
					}
				}
			}
		}
	}
}
MOTION
Frames: 4
Frame Time: 0.033333
-0.346920 14.120758 -4.330849 -71.442918 11.970286 8.276188 -0.000000 10.181546 0.131521 10.528143 -1.103358 0.545028 21.019636 -3.316719 -0.311194 21.019632 -3.316713 -0.311197 0.000002 16.740385 -2.049029 25.778541 0.195222 5.667943 -0.000001 9.617846 1.684978 0.500579 -2.654475 4.064568 0.000000 22.037384 7.501066 -0.000000 0.000000 -0.000000 -4.570000 11.014864 -2.160842 1.454088 2.009798 -12.728519 51.978337 26.515126 74.998885 -3.541747 46.351272 0.459796 55.539236 7.608896 -74.144121 -2.464797 -1.573978 2.681904 -13.195160 14.598466 3.602231 -25.437327 -11.661798 -12.924030 -2.646264 -1.527825 1.527813 0.000004 -0.000003 -0.000009 -1.994587 -1.151583 1.151569 0.000003 -0.000004 0.000002 -9.108305 -0.517879 2.259806 -5.801397 7.410587 9.011735 -0.117207 -0.020759 14.927180 0.000001 0.000000 -0.000000 0.000000 0.000001 0.000002 -9.532486 0.000018 0.000001 -2.588391 0.652502 15.975925 -0.167223 -0.284727 3.366321 0.000000 -0.000000 0.000001 0.000000 -0.000000 0.000000 -9.103604 -0.043109 -1.865103 1.364720 -7.856171 12.521590 0.234324 1.737066 11.738026 -0.000000 0.000000 -0.000001 -0.000000 -0.000000 0.000001 -8.076702 -0.486719 -3.806294 5.491699 -14.873060 9.789655 0.788322 7.067364 23.752514 -0.000000 -0.000001 0.000006 0.000000 -0.000001 0.000002 4.570400 11.014705 -2.160816 2.684278 -12.450372 12.240758 64.576686 -11.918067 -83.648767 -0.760196 -55.695859 1.116610 46.785993 4.754883 88.117199 2.466103 -1.576194 2.681704 -26.395527 -8.930187 -15.954999 -9.106264 4.525114 1.618537 2.647887 -1.528777 1.528762 0.000005 -0.000001 0.000000 1.998936 -1.154087 1.154084 -0.000001 0.000002 0.000001 9.109313 -0.518014 2.259905 -4.807590 -14.926690 -15.192545 -1.650250 -0.338199 -21.520843 -0.000000 -0.000001 0.000001 -0.000001 -0.000000 0.000000 9.533408 -0.000006 0.000005 -2.022034 -4.469944 -24.450240 -0.632822 -0.279451 -9.650393 0.000001 0.000002 -0.000009 -0.000001 0.000000 0.000001 9.104506 -0.042994 -1.865098 2.256818 5.624931 -27.362814 0.287462 -1.598971 -13.031804 -0.000002 -0.000001 -0.000001 -0.000002 -0.000002 -0.000001 8.077818 -0.486901 -3.806298 14.403214 22.222160 -35.475456 -0.180520 -4.590102 -20.995761 -0.000008 0.000002 0.000004 0.000002 0.000002 -0.000001 -8.207802 -6.751706 -1.599537 -55.809783 0.095223 -12.881710 69.592108 0.642210 2.374783 33.976602 -3.583970 -0.695005 -2.826198 -0.169257 0.434194 -0.000001 -0.000000 0.000000 8.207797 -6.751700 -1.599549 -55.765025 2.457673 11.299120 62.552020 16.257283 -1.418332 -3.853269 -3.100402 -1.788843 -2.247688 -0.029810 0.067655 0.000000 -0.000003 0.000001 
-0.308354 14.068237 -4.300003 -71.762687 11.778933 8.185452 0.000000 10.181552 0.131521 10.610088 -1.038089 0.587902 21.190146 -3.095141 -0.135460 21.190174 -3.095146 -0.135460 -0.000001 16.740368 -2.049027 25.624040 0.101835 5.801401 0.000000 9.617838 1.684982 0.732873 -2.779575 4.056307 0.000001 22.037369 7.501072 0.000000 -0.000000 -0.000000 -4.570001 11.014879 -2.160841 3.033872 2.316322 -13.355667 50.552081 27.757802 75.399237 -5.291561 45.972928 1.580320 55.216936 8.799290 -74.203892 -2.464798 -1.573994 2.681917 -13.236696 14.587807 3.550504 -25.427567 -11.663154 -12.916235 -2.646260 -1.527814 1.527814 0.000010 -0.000005 -0.000011 -1.994583 -1.151583 1.151571 0.000009 -0.000003 -0.000000 -9.108303 -0.517875 2.259809 -5.807562 7.435116 9.052238 -0.118578 -0.024510 15.014059 0.000000 -0.000000 -0.000001 -0.000000 0.000001 -0.000004 -9.532500 0.000006 0.000001 -2.583725 0.702135 15.968473 -0.167231 -0.284732 3.366321 -0.000000 0.000000 0.000001 -0.000000 0.000000 0.000001 -9.103596 -0.043108 -1.865101 1.352906 -7.877973 12.501244 0.233987 1.738856 11.757693 0.000000 -0.000000 -0.000000 0.000000 0.000000 -0.000001 -8.076705 -0.486717 -3.806293 5.466366 -14.925089 9.760408 0.788423 7.067082 23.749462 -0.000000 -0.000000 0.000001 0.000000 -0.000001 0.000002 4.570400 11.014679 -2.160814 2.727204 -12.489936 12.359497 64.453667 -12.447816 -83.298405 -0.741528 -56.156087 1.219314 46.577095 4.934913 87.757938 2.466114 -1.576192 2.681701 -26.290585 -8.819143 -15.957420 -9.089232 4.584300 1.602203 2.647894 -1.528780 1.528756 0.000002 -0.000001 0.000004 1.998929 -1.154102 1.154085 -0.000004 0.000004 0.000001 9.109305 -0.518010 2.259902 -4.836756 -14.932718 -15.306263 -1.651910 -0.340844 -21.551378 0.000000 0.000001 0.000000 -0.000000 0.000001 0.000001 9.533417 -0.000004 0.000000 -2.012238 -4.551782 -24.466106 -0.633360 -0.282308 -9.679591 0.000001 0.000002 -0.000008 0.000001 -0.000002 0.000000 9.104511 -0.042991 -1.865100 2.261495 5.562837 -27.385746 0.287080 -1.600954 -13.061351 -0.000001 -0.000001 -0.000001 -0.000001 0.000002 -0.000000 8.077816 -0.486890 -3.806301 14.451920 22.157909 -35.625553 -0.180521 -4.590100 -20.995764 -0.000005 0.000002 0.000003 0.000004 -0.000002 0.000001 -8.207801 -6.751700 -1.599540 -55.931050 -0.691849 -13.170042 70.369151 0.807887 2.386883 31.783643 -3.347822 -1.761868 -2.924793 -0.207639 0.459896 0.000000 0.000000 0.000000 8.207795 -6.751701 -1.599547 -55.410142 1.358957 11.067903 62.822967 16.907134 -1.453977 -4.461686 -2.700813 -3.141765 -2.247691 -0.005474 0.015355 -0.000000 0.000001 0.000001 
-0.270847 14.025620 -4.205925 -72.230842 11.420129 7.971859 -0.000000 10.181557 0.131520 10.753355 -0.992142 0.551306 21.483441 -2.863467 -0.030433 21.483421 -2.863464 -0.030437 0.000001 16.740374 -2.049015 25.208739 -0.006175 5.905031 0.000000 9.617843 1.684972 1.109513 -2.835894 3.836313 -0.000000 22.037354 7.501068 -0.000000 -0.000000 -0.000000 -4.570002 11.014885 -2.160839 4.709191 2.766043 -13.650327 48.939292 28.350394 75.646380 -7.314371 45.653111 2.888192 54.918495 9.994214 -73.822747 -2.464792 -1.573989 2.681914 -13.234124 14.537624 3.527640 -25.393482 -11.662993 -12.894625 -2.646272 -1.527821 1.527812 0.000004 -0.000003 -0.000009 -1.994590 -1.151584 1.151572 0.000005 0.000000 0.000003 -9.108301 -0.517876 2.259804 -5.818132 7.458981 9.126210 -0.119425 -0.025897 15.059495 0.000001 0.000000 0.000003 0.000001 0.000000 0.000002 -9.532502 0.000007 -0.000002 -2.578100 0.733296 15.909158 -0.167207 -0.284995 3.363398 -0.000001 -0.000000 0.000001 -0.000000 -0.000000 0.000001 -9.103592 -0.043106 -1.865104 1.349330 -7.904237 12.419148 0.233375 1.742108 11.793586 -0.000000 -0.000000 0.000000 -0.000000 -0.000001 0.000003 -8.076698 -0.486712 -3.806298 5.423982 -14.970106 9.684451 0.788955 7.065655 23.734892 -0.000000 -0.000000 -0.000000 -0.000000 -0.000000 0.000002 4.570400 11.014670 -2.160815 2.638844 -12.346286 12.220356 64.878929 -13.306695 -82.666237 -0.649641 -57.176173 1.504882 45.812910 5.618847 87.585496 2.466108 -1.576203 2.681702 -26.293879 -8.858790 -15.988054 -9.063190 4.663056 1.543399 2.647895 -1.528765 1.528758 0.000008 0.000001 0.000003 1.998932 -1.154077 1.154091 0.000003 0.000004 0.000003 9.109311 -0.518026 2.259904 -4.836805 -14.943665 -15.309196 -1.652723 -0.342142 -21.566228 -0.000000 -0.000000 0.000001 0.000000 0.000000 0.000003 9.533409 -0.000003 0.000006 -1.987350 -4.646191 -24.404966 -0.633722 -0.284187 -9.698933 0.000001 0.000002 -0.000009 -0.000000 -0.000000 0.000002 9.104518 -0.043006 -1.865098 2.267999 5.532726 -27.331318 0.286646 -1.603048 -13.093010 -0.000000 0.000002 -0.000000 -0.000003 0.000006 -0.000004 8.077818 -0.486889 -3.806306 14.490653 22.117387 -35.778320 -0.180508 -4.590088 -20.995768 -0.000006 0.000002 0.000004 -0.000001 0.000002 0.000000 -8.207804 -6.751704 -1.599541 -56.174133 -1.197523 -13.111326 72.053660 0.857395 2.413404 27.776479 -2.993428 -2.639383 -2.805315 -0.338349 0.516031 0.000003 -0.000000 0.000000 8.207798 -6.751700 -1.599556 -54.968918 0.086241 10.746245 63.362360 17.624531 -1.499693 -5.062592 -1.898331 -4.595944 -2.244257 -0.025807 0.059058 -0.000002 -0.000003 0.000002 
-0.212788 13.982849 -4.093735 -72.819823 11.058583 7.578299 -0.000000 10.181560 0.131521 10.978818 -0.990768 0.530956 21.941035 -2.710155 0.131319 21.941030 -2.710156 0.131315 0.000001 16.740376 -2.049027 24.276838 0.025382 6.000468 0.000001 9.617840 1.684978 1.150407 -2.472913 2.819178 -0.000000 22.037369 7.501071 -0.000001 -0.000000 0.000000 -4.570003 11.014882 -2.160841 6.290309 3.307237 -12.914630 47.899191 26.590584 74.960452 -9.229466 46.417317 4.906913 55.036626 10.591181 -73.089827 -2.464800 -1.573995 2.681904 -13.251306 14.647889 3.615332 -25.337461 -11.662762 -12.859005 -2.646260 -1.527827 1.527814 0.000006 -0.000002 -0.000011 -1.994606 -1.151595 1.151572 -0.000002 -0.000001 0.000000 -9.108301 -0.517877 2.259803 -5.808708 7.466838 9.160982 -0.119203 -0.026287 15.054347 -0.000000 0.000000 -0.000001 -0.000000 0.000000 -0.000001 -9.532503 -0.000010 -0.000002 -2.579006 0.733391 15.927668 -0.167003 -0.286967 3.340586 -0.000000 0.000000 -0.000001 -0.000000 0.000000 0.000002 -9.103608 -0.043110 -1.865097 1.350530 -7.884059 12.414026 0.233133 1.743450 11.808284 -0.000000 0.000001 0.000003 0.000000 0.000001 0.000001 -8.076698 -0.486707 -3.806300 5.390337 -14.995762 9.707201 0.789820 7.063310 23.710822 0.000000 -0.000000 0.000004 0.000001 -0.000000 0.000004 4.570398 11.014680 -2.160819 2.256454 -11.452207 11.694631 65.619110 -14.642510 -81.223612 -0.201428 -58.541948 2.100021 44.373133 6.775870 87.589274 2.466105 -1.576210 2.681698 -26.224313 -8.824081 -16.033654 -9.033384 4.759952 1.449346 2.647891 -1.528779 1.528756 0.000004 -0.000003 0.000005 1.998917 -1.154064 1.154084 0.000004 -0.000000 -0.000004 9.109313 -0.518009 2.259899 -4.837771 -14.935515 -15.310894 -1.652734 -0.342150 -21.566382 -0.000000 -0.000001 -0.000000 -0.000001 0.000000 0.000001 9.533404 -0.000002 0.000001 -1.944679 -4.745819 -24.267409 -0.633862 -0.284931 -9.706464 0.000001 0.000003 -0.000010 0.000000 0.000001 0.000001 9.104511 -0.042999 -1.865102 2.276244 5.524102 -27.218282 0.286212 -1.605287 -13.126470 -0.000000 0.000002 0.000001 -0.000000 0.000002 -0.000000 8.077817 -0.486895 -3.806303 14.514087 22.088217 -35.901462 -0.180445 -4.590334 -21.005262 -0.000008 0.000003 0.000005 -0.000000 0.000000 -0.000001 -8.207803 -6.751701 -1.599540 -56.796346 -1.044422 -12.422528 74.785394 1.006618 2.469775 23.179215 -2.467680 -3.728396 -1.932746 -0.718748 0.771164 -0.000001 -0.000000 -0.000000 8.207801 -6.751696 -1.599553 -54.419361 -1.390077 10.642250 63.954558 18.282881 -1.558339 -5.401775 -0.542683 -5.961967 -2.208610 -0.191199 0.132813 -0.000001 -0.000003 0.000001 
